<svg width="16" height="16" viewBox="0 0 16 16" fill="none" xmlns="http://www.w3.org/2000/svg">
<g id="Frame" clip-path="url(#clip0_181256_34036)">
<path id="Vector" d="M8.0002 1.33301C11.6768 1.33301 14.6674 4.32363 14.6674 8.0002C14.6674 11.6768 11.6768 14.6674 8.0002 14.6674C4.32363 14.6674 1.33301 11.6768 1.33301 8.0002C1.33301 4.32363 4.32363 1.33301 8.0002 1.33301ZM8.0002 0.333008C3.76582 0.333008 0.333008 3.76582 0.333008 8.0002C0.333008 12.2346 3.76582 15.6674 8.0002 15.6674C12.2346 15.6674 15.6674 12.2346 15.6674 8.0002C15.6674 3.76582 12.2346 0.333008 8.0002 0.333008Z" fill="#77869E"/>
<path id="Vector_2" d="M7 4.33301C7 4.59822 7.10536 4.85258 7.29289 5.04011C7.48043 5.22765 7.73478 5.33301 8 5.33301C8.26522 5.33301 8.51957 5.22765 8.70711 5.04011C8.89464 4.85258 9 4.59822 9 4.33301C9 4.06779 8.89464 3.81344 8.70711 3.6259C8.51957 3.43836 8.26522 3.33301 8 3.33301C7.73478 3.33301 7.48043 3.43836 7.29289 3.6259C7.10536 3.81344 7 4.06779 7 4.33301Z" fill="#77869E"/>
<path id="Vector_3" d="M8 12.667C7.44844 12.667 7 12.2186 7 11.667V7.66699C7 7.11543 7.44844 6.66699 8 6.66699C8.55156 6.66699 9 7.11543 9 7.66699V11.667C9 12.2186 8.55156 12.667 8 12.667Z" fill="#77869E"/>
</g>
<defs>
<clipPath id="clip0_181256_34036">
<rect width="16" height="16" fill="white"/>
</clipPath>
</defs>
</svg>
