<svg width="24" height="24" viewBox="0 0 24 24" fill="none" xmlns="http://www.w3.org/2000/svg">
<g id="Frame">
<path id="Vector" d="M13.2069 2.18332L20.96 5.50472C21.1219 5.57371 21.2642 5.67928 21.3747 5.81249C21.4853 5.94569 21.561 6.10261 21.5953 6.26997C21.6106 6.30551 21.6217 6.34258 21.6284 6.3805L21.6383 6.47616V10.4491C21.6385 10.5819 21.5872 10.71 21.4944 10.8081C21.4015 10.9062 21.2739 10.9673 21.1367 10.9793C20.9995 10.9913 20.8625 10.9534 20.7529 10.8729C20.6432 10.7925 20.5688 10.6754 20.5443 10.5447L20.5354 10.4491L20.5343 7.62935L13.2069 10.7679C12.9249 10.8888 12.6196 10.9513 12.3109 10.9513C12.0022 10.9513 11.6969 10.8888 11.4148 10.7679L4.10286 7.63573V15.183C4.10285 15.4614 4.17849 15.735 4.32225 15.9764C4.46602 16.2179 4.67289 16.4189 4.92228 16.5594L5.06345 16.6306L12.6059 19.986C12.731 20.0416 12.8299 20.1403 12.8833 20.2627C12.9366 20.3851 12.9405 20.5223 12.8942 20.6473C12.8479 20.7723 12.7547 20.8761 12.6329 20.9382C12.5112 21.0003 12.3698 21.0163 12.2364 20.983L12.1427 20.9511L4.60135 17.5957C4.15427 17.3966 3.77066 17.0858 3.49041 16.6956C3.21016 16.3053 3.04348 15.8498 3.00772 15.3764L3 15.183V6.47616C3 6.44002 3.00331 6.40601 3.01103 6.372C3.03129 6.18522 3.10204 6.00682 3.21622 5.85464C3.3304 5.70245 3.48401 5.58179 3.66171 5.50472L11.4148 2.18332C11.6969 2.06245 12.0022 2 12.3109 2C12.6196 2 12.9249 2.06245 13.2069 2.18332ZM18.7764 11.0464C18.9701 11.0462 19.1606 11.0952 19.3284 11.1885C19.4963 11.2818 19.6357 11.4161 19.7326 11.5778L21.8522 15.1171C21.949 15.2787 22 15.462 22 15.6485C22 15.8351 21.949 16.0184 21.8522 16.18L19.7326 19.7192C19.6358 19.8808 19.4965 20.015 19.3289 20.1083C19.1612 20.2015 18.9711 20.2507 18.7775 20.2507H14.5359C14.3423 20.2507 14.1521 20.2015 13.9845 20.1083C13.8168 20.015 13.6776 19.8808 13.5808 19.7192L11.4611 16.18C11.3643 16.0184 11.3134 15.8351 11.3134 15.6485C11.3134 15.462 11.3643 15.2787 11.4611 15.1171L13.5808 11.5778C13.6776 11.4163 13.8168 11.2821 13.9845 11.1888C14.1521 11.0955 14.3423 11.0464 14.5359 11.0464H18.7775H18.7764ZM18.7764 12.1093H14.5359L12.4162 15.6485L14.5359 19.1878H18.7775L20.8972 15.6485L18.7775 12.1093H18.7764ZM16.7857 13.9161C17.2245 13.9161 17.6452 14.0841 17.9555 14.383C18.2657 14.682 18.44 15.0875 18.44 15.5104C18.44 15.9332 18.2657 16.3387 17.9555 16.6377C17.6452 16.9367 17.2245 17.1046 16.7857 17.1046C16.347 17.1046 15.9262 16.9367 15.616 16.6377C15.3057 16.3387 15.1314 15.9332 15.1314 15.5104C15.1314 15.0875 15.3057 14.682 15.616 14.383C15.9262 14.0841 16.347 13.9161 16.7857 13.9161ZM16.7857 14.9789C16.6395 14.9789 16.4992 15.0349 16.3958 15.1346C16.2924 15.2343 16.2343 15.3694 16.2343 15.5104C16.2343 15.6513 16.2924 15.7865 16.3958 15.8861C16.4992 15.9858 16.6395 16.0418 16.7857 16.0418C16.932 16.0418 17.0722 15.9858 17.1756 15.8861C17.279 15.7865 17.3371 15.6513 17.3371 15.5104C17.3371 15.3694 17.279 15.2343 17.1756 15.1346C17.0722 15.0349 16.932 14.9789 16.7857 14.9789ZM11.9883 3.11012L11.8637 3.15476L4.10837 6.47616L11.8637 9.79756C12.1067 9.90149 12.3804 9.91735 12.6346 9.8422L12.7592 9.79756L20.5123 6.47616L12.7592 3.15476C12.5159 3.05056 12.2417 3.03471 11.9872 3.11012H11.9883Z" fill="#fff"/>
</g>
</svg>
