<svg width="24" height="24" viewBox="0 0 24 24" fill="none" xmlns="http://www.w3.org/2000/svg">
<g id="Frame">
<path id="Vector" d="M18.5738 7.96059L17.9006 7.57762C17.8043 7.52278 17.6954 7.49395 17.5846 7.49395C17.4738 7.49395 17.3648 7.52278 17.2685 7.57762L16.5954 7.96059C16.4695 8.0323 16.3132 7.94137 16.3132 7.79652V3.53652C16.3132 3.43223 16.3978 3.34785 16.5019 3.34785H18.667C18.7713 3.34785 18.8557 3.43246 18.8557 3.53652V7.79652C18.8559 7.94137 18.6996 8.0323 18.5738 7.96059ZM14.0806 10.7295H11.8477C11.4954 10.7295 11.2099 10.4438 11.2099 10.0918C11.2099 9.73973 11.4954 9.45402 11.8477 9.45402H14.0803C14.4326 9.45402 14.7181 9.73973 14.7181 10.0918C14.7183 10.4438 14.4328 10.7295 14.0806 10.7295ZM17.9862 16.6925H11.8477C11.4954 16.6925 11.2099 16.4068 11.2099 16.0547C11.2099 15.7027 11.4954 15.417 11.8477 15.417H17.9862C18.3384 15.417 18.6239 15.7027 18.6239 16.0547C18.6241 16.4068 18.3384 16.6925 17.9862 16.6925ZM17.9862 13.711H11.8477C11.4954 13.711 11.2099 13.4253 11.2099 13.0732C11.2099 12.7212 11.4954 12.4355 11.8477 12.4355H17.9862C18.3384 12.4355 18.6239 12.7212 18.6239 13.0732C18.6239 13.4253 18.3384 13.711 17.9862 13.711ZM6.26719 21.3223H3.80438C2.98384 21.3223 2.3161 20.6546 2.3161 19.834V4.17285C2.3161 3.3523 2.98384 2.68457 3.80438 2.68457H6.26719C7.08774 2.68457 7.75548 3.3523 7.75548 4.17285V19.834C7.75548 20.6548 7.08774 21.3223 6.26719 21.3223ZM3.80438 3.96027C3.68696 3.96027 3.5918 4.05566 3.5918 4.17285V19.834C3.5918 19.9512 3.6872 20.0466 3.80438 20.0466H6.26719C6.38462 20.0466 6.47977 19.9512 6.47977 19.834V4.17285C6.47977 4.05566 6.38438 3.96027 6.26719 3.96027H3.80438Z" fill="#fff"/>
<path id="Vector_2" d="M20.3794 21.3221H10.1302C9.34898 21.3221 8.71359 20.6864 8.71359 19.9053V4.10137C8.71359 3.3202 9.34922 2.68457 10.1302 2.68457H20.3794C21.1298 2.68457 21.7406 3.29535 21.7406 4.04582V19.9613C21.7406 20.7113 21.1301 21.3221 20.3794 21.3221ZM10.1302 3.96004C10.0526 3.96004 9.9893 4.02355 9.9893 4.10113V19.9053C9.9893 19.9829 10.0526 20.0464 10.1302 20.0464H20.3794C20.4265 20.0464 20.4649 20.0082 20.4649 19.9608V4.04559C20.4649 3.99824 20.4265 3.96004 20.3794 3.96004H10.1302Z" fill="#fff"/>
<path id="Vector_3" d="M4.4393 6.87969C4.4393 7.03788 4.50214 7.1896 4.61401 7.30147C4.72587 7.41333 4.87759 7.47617 5.03578 7.47617C5.19398 7.47617 5.3457 7.41333 5.45756 7.30147C5.56943 7.1896 5.63227 7.03788 5.63227 6.87969C5.63227 6.72149 5.56943 6.56977 5.45756 6.45791C5.3457 6.34605 5.19398 6.2832 5.03578 6.2832C4.87759 6.2832 4.72587 6.34605 4.61401 6.45791C4.50214 6.56977 4.4393 6.72149 4.4393 6.87969Z" fill="#fff"/>
<path id="Vector_4" d="M4.4393 8.58281C4.4393 8.74101 4.50214 8.89273 4.61401 9.00459C4.72587 9.11645 4.87759 9.1793 5.03578 9.1793C5.19398 9.1793 5.3457 9.11645 5.45756 9.00459C5.56943 8.89273 5.63227 8.74101 5.63227 8.58281C5.63227 8.42461 5.56943 8.2729 5.45756 8.16103C5.3457 8.04917 5.19398 7.98633 5.03578 7.98633C4.87759 7.98633 4.72587 8.04917 4.61401 8.16103C4.50214 8.2729 4.4393 8.42461 4.4393 8.58281Z" fill="#fff"/>
</g>
</svg>
