<svg width="20" height="22" viewBox="0 0 20 22" fill="none" xmlns="http://www.w3.org/2000/svg">
<path id="Vector" d="M19.876 16.1134C19.0938 17.4504 18.0455 18.6126 16.796 19.5281C15.5419 20.4478 14.1139 21.1029 12.5987 21.4534C11.0815 21.8041 9.50913 21.844 7.97614 21.5709C6.44316 21.2977 4.98132 20.7171 3.67867 19.8641L3.55067 19.7801L3.648 19.6601L4.66533 18.4161L4.744 18.3201L4.848 18.3867C6.90616 19.6924 9.38346 20.1676 11.7787 19.7161C14.1687 19.2697 16.2979 17.9271 17.7307 15.9627L17.772 15.9054H19.9987L19.876 16.1134ZM2.50267 15.9107C2.85867 15.9454 3.192 16.1001 3.44667 16.3507C3.62689 16.5283 3.76004 16.748 3.83413 16.99C3.90821 17.2319 3.92088 17.4885 3.871 17.7366C3.82112 17.9847 3.71026 18.2164 3.54842 18.4109C3.38659 18.6054 3.17886 18.7566 2.944 18.8507C2.80341 18.9083 2.65519 18.9451 2.504 18.9601L2.352 18.9667C1.94297 18.9662 1.55043 18.8054 1.25867 18.5187C1.11495 18.3773 1.00081 18.2087 0.922902 18.0227C0.844993 17.8367 0.80487 17.637 0.80487 17.4354C0.80487 17.2338 0.844993 17.0341 0.922902 16.8481C1.00081 16.6621 1.11495 16.4935 1.25867 16.3521C1.548 16.0641 1.94133 15.9027 2.352 15.9027L2.504 15.9107H2.50267ZM5.53867 8.22273C5.98267 7.4934 7.11467 7.80407 7.11467 8.6534V14.5227H5.41733V11.6801L4.44933 13.2774C4.38065 13.3916 4.28587 13.4879 4.17276 13.5583C4.05965 13.6288 3.93145 13.6714 3.79867 13.6827C3.66589 13.6944 3.53221 13.6751 3.40818 13.6263C3.28415 13.5775 3.17317 13.5005 3.084 13.4014L2.992 13.2774L2.024 11.6814V14.5241H0.326667V8.6534C0.326667 7.80273 1.46 7.4934 1.904 8.22273L3.72 11.2161L5.53733 8.22273H5.53867ZM12.2067 9.49207H11.3587C10.908 9.49207 10.476 9.66807 10.1587 9.98273C10.0014 10.1378 9.8766 10.3225 9.79139 10.5263C9.70618 10.73 9.6623 10.9486 9.6623 11.1694C9.6623 11.3902 9.70618 11.6088 9.79139 11.8125C9.8766 12.0163 10.0014 12.201 10.1587 12.3561C10.476 12.6694 10.908 12.8467 11.3587 12.8467H12.2067V14.5241H11.3587C10.4606 14.5249 9.59831 14.1718 8.95867 13.5414C8.64399 13.2314 8.39403 12.8619 8.22328 12.4545C8.05253 12.0471 7.9644 11.6098 7.964 11.1681C7.96478 10.727 8.0531 10.2904 8.22385 9.8837C8.39459 9.47699 8.64435 9.10821 8.95867 8.79873C9.5981 8.16782 10.4604 7.81428 11.3587 7.81473H12.2067V9.4934V9.49207ZM17.2987 7.81473C17.9733 7.81473 18.6213 8.0814 19.0987 8.55206C19.3341 8.7846 19.521 9.06156 19.6486 9.36689C19.7762 9.67221 19.8419 9.99982 19.8419 10.3307C19.8419 10.6616 19.7762 10.9893 19.6486 11.2946C19.521 11.5999 19.3341 11.8769 19.0987 12.1094C18.6189 12.5822 17.9723 12.8471 17.2987 12.8467H15.6V14.5241H13.9027V9.07207C13.9027 8.73873 14.036 8.41873 14.2747 8.18273C14.5149 7.94589 14.8387 7.8132 15.176 7.8134H17.296L17.2987 7.81473ZM15.6 11.1694H17.2973C17.522 11.1694 17.7376 11.0807 17.8973 10.9227C18.0174 10.806 18.0995 10.6558 18.133 10.4917C18.1665 10.3277 18.1497 10.1573 18.085 10.0029C18.0202 9.84846 17.9104 9.71713 17.7699 9.62601C17.6294 9.53489 17.4647 9.48821 17.2973 9.49207H15.6V11.1694ZM6.948 0.826732C9.82828 0.0366763 12.9028 0.395175 15.524 1.82673L15.6613 1.90407L15.568 2.03073L14.6213 3.33207L14.5507 3.42807L14.444 3.37473C12.4067 2.31278 10.0566 2.01482 7.81867 2.53473C5.57867 3.05473 3.83733 4.1454 2.45867 6.2014L2.416 6.26407H2.34L2.15333 6.25873H0L0.122667 6.0494C1.62876 3.48371 4.079 1.60919 6.94933 0.826732H6.948ZM17.0427 2.60407C17.452 2.60407 17.8467 2.7654 18.136 3.05207C18.4267 3.33873 18.5893 3.7294 18.5893 4.13473L18.5827 4.28673C18.5467 4.6374 18.3907 4.96673 18.136 5.2174C17.8446 5.50467 17.4519 5.66572 17.0427 5.66572C16.6335 5.66572 16.2407 5.50467 15.9493 5.2174C15.806 5.07588 15.6922 4.90731 15.6145 4.72145C15.5368 4.5356 15.4968 4.33617 15.4968 4.13473C15.4968 3.9333 15.5368 3.73386 15.6145 3.54801C15.6922 3.36216 15.806 3.19358 15.9493 3.05207C16.24 2.7654 16.6333 2.60407 17.0427 2.60407Z" fill="#fff"/>
</svg>
