<svg width="16" height="16" viewBox="0 0 16 16" fill="none" xmlns="http://www.w3.org/2000/svg">
<g id="Frame" clip-path="url(#clip0_181256_34061)">
<path id="Vector" d="M6.82687 14.1851C6.88985 14.1647 6.94815 14.132 6.99839 14.0889C7.04863 14.0458 7.08982 13.9931 7.11955 13.934C7.14929 13.8749 7.16699 13.8104 7.17163 13.7444C7.17627 13.6784 7.16775 13.6121 7.14656 13.5494C7.12538 13.4866 7.09196 13.4288 7.04823 13.3791C7.0045 13.3294 6.95134 13.2889 6.89184 13.2599C6.83233 13.2309 6.76766 13.214 6.70158 13.2102C6.63549 13.2064 6.56931 13.2157 6.50687 13.2377L6.82687 14.1851ZM1.78421 11.1164C1.72674 10.9969 1.62415 10.9051 1.499 10.8612C1.37386 10.8173 1.2364 10.8249 1.11687 10.8824C0.99735 10.9398 0.905549 11.0424 0.861665 11.1676C0.817782 11.2927 0.825411 11.4302 0.882875 11.5497L1.78421 11.1164ZM0.882875 11.5497C1.49154 12.8164 2.32954 13.7084 3.37221 14.1617C4.41554 14.6164 5.59554 14.6011 6.82687 14.1851L6.50687 13.2377C5.45287 13.5937 4.53687 13.5777 3.77087 13.2444C3.00421 12.9111 2.31754 12.2277 1.78421 11.1164L0.882875 11.5497Z" fill="#77869E"/>
<path id="Vector_2" d="M6.78452 10.8604L6.91719 10.3777L6.78452 10.8597V10.8604ZM11.2152 10.8604L11.0825 10.3777L11.2152 10.8597V10.8604ZM6.16652 14.667C6.16652 14.7996 6.2192 14.9268 6.31297 15.0206C6.40673 15.1143 6.53391 15.167 6.66652 15.167C6.79913 15.167 6.9263 15.1143 7.02007 15.0206C7.11384 14.9268 7.16652 14.7996 7.16652 14.667H6.16652ZM10.8332 14.667C10.8332 14.7996 10.8859 14.9268 10.9796 15.0206C11.0734 15.1143 11.2006 15.167 11.3332 15.167C11.4658 15.167 11.593 15.1143 11.6867 15.0206C11.7805 14.9268 11.8332 14.7996 11.8332 14.667H10.8332ZM7.43785 2.18702L7.55852 2.67236L7.43852 2.18702H7.43785ZM13.8445 3.63969L14.3299 3.76036L13.8445 3.64036V3.63969ZM13.7379 1.35302L14.2032 1.17102C14.1763 1.10222 14.1345 1.04022 14.0808 0.989502C14.027 0.938782 13.9628 0.900596 13.8925 0.877691L13.7379 1.35236V1.35302ZM11.8219 1.99302L11.5572 1.56969L11.8219 1.99369V1.99302ZM6.17785 1.99302L6.44252 1.56969L6.17785 1.99369V1.99302ZM4.26185 1.35302L4.10719 0.877024C4.03695 0.89993 3.97266 0.938116 3.91894 0.988836C3.86523 1.03956 3.82342 1.10155 3.79652 1.17036L4.26185 1.35236V1.35302ZM11.2325 2.30036L11.1539 1.80636L11.2319 2.29969L11.2325 2.30036ZM6.91719 10.3777C5.92652 10.1057 5.17852 9.77369 4.66652 9.21436C4.16719 8.66902 3.83252 7.83769 3.83252 6.43102H2.83252C2.83252 7.99836 3.20919 9.10302 3.92852 9.88902C4.63519 10.6624 5.61252 11.0564 6.65119 11.3424L6.91652 10.3777H6.91719ZM14.1665 6.43102C14.1665 7.83769 13.8319 8.66902 13.3332 9.21436C12.8212 9.77302 12.0719 10.1057 11.0825 10.3777L11.3479 11.3424C12.3865 11.0564 13.3632 10.6624 14.0705 9.88902C14.7905 9.10302 15.1665 7.99836 15.1665 6.43102H14.1665ZM6.16652 12.5057V14.667H7.16652V12.5057H6.16652ZM10.8332 12.5057V14.667H11.8332V12.5057H10.8332ZM6.56385 11.1804C6.32519 11.5584 6.16652 11.9964 6.16652 12.5057H7.16652C7.16652 12.217 7.25319 11.9617 7.40985 11.7137L6.56385 11.1804ZM10.5905 11.7137C10.7465 11.9617 10.8332 12.217 10.8332 12.5057H11.8332C11.8332 11.9964 11.6745 11.559 11.4359 11.1804L10.5899 11.7137H10.5905ZM7.55785 2.67236C8.02952 2.5554 8.51391 2.49762 8.99985 2.50036V1.50036C8.39119 1.50036 7.84652 1.57036 7.31719 1.70236L7.55852 2.67236H7.55785ZM3.83319 6.43102C3.83319 5.77102 4.04852 5.14302 4.44052 4.58569L3.62319 4.01036C3.12452 4.71836 2.83319 5.54436 2.83319 6.43102H3.83319ZM8.99985 2.50036C9.52785 2.50036 9.99119 2.56036 10.4412 2.67236L10.6825 1.70236C10.1321 1.56567 9.56694 1.49782 8.99985 1.50036V2.50036ZM13.5592 4.58569C13.9512 5.14302 14.1665 5.77102 14.1665 6.43102H15.1665C15.1665 5.54436 14.8752 4.71836 14.3765 4.01036L13.5592 4.58569ZM11.0825 10.3777C10.4612 10.549 10.3059 11.2637 10.5899 11.7137L11.4359 11.1804C11.443 11.1912 11.4477 11.2036 11.4494 11.2165C11.4511 11.2295 11.4499 11.2426 11.4459 11.255C11.4375 11.2762 11.4243 11.2951 11.4073 11.3101C11.3902 11.3252 11.3699 11.336 11.3479 11.3417L11.0825 10.3777ZM6.65185 11.3424C6.62984 11.3367 6.60948 11.3259 6.59244 11.3108C6.57541 11.2957 6.56218 11.2768 6.55385 11.2557C6.54969 11.2432 6.54842 11.2299 6.55016 11.2169C6.55189 11.2038 6.55657 11.1913 6.56385 11.1804L7.40985 11.7137C7.69385 11.2637 7.53852 10.549 6.91652 10.3777L6.65185 11.3424ZM14.3299 3.76036C14.5385 2.92036 14.5299 2.00836 14.2032 1.17102L13.2719 1.53436C13.5112 2.14769 13.5272 2.84369 13.3592 3.51902L14.3299 3.76036ZM13.7379 1.35236C13.8925 0.877024 13.8919 0.877024 13.8912 0.877024L13.8892 0.875691C13.8848 0.87444 13.8803 0.873328 13.8759 0.872358C13.8524 0.865247 13.8286 0.859461 13.8045 0.855024C13.7561 0.845959 13.7071 0.839947 13.6579 0.837024C13.5014 0.828789 13.3444 0.839534 13.1905 0.869024C12.8025 0.939024 12.2639 1.12769 11.5572 1.56902L12.0865 2.41769C12.7105 2.02769 13.1305 1.89569 13.3679 1.85302C13.442 1.83817 13.5176 1.83213 13.5932 1.83502C13.6105 1.83569 13.6172 1.83702 13.6152 1.83702C13.6084 1.83564 13.6017 1.83386 13.5952 1.83169L13.5899 1.83036L13.5865 1.82902H13.5845L13.5839 1.82836C13.5839 1.82836 13.5825 1.82836 13.7372 1.35236H13.7379ZM6.44252 1.56969C5.73585 1.12769 5.19719 0.939024 4.80919 0.869691C4.65554 0.839814 4.49885 0.828622 4.34252 0.836358C4.26546 0.841515 4.18909 0.854243 4.11452 0.874358C4.11274 0.875016 4.11096 0.875683 4.10919 0.876358H4.10785C4.10785 0.876358 4.10719 0.877024 4.26185 1.35236C4.41719 1.82769 4.41652 1.82836 4.41585 1.82836H4.41519L4.41319 1.82902L4.40985 1.83036C4.40148 1.83284 4.39303 1.83506 4.38452 1.83702C4.46756 1.83181 4.55092 1.83741 4.63252 1.85369C4.86919 1.89569 5.28919 2.02769 5.91252 2.41769L6.44252 1.56969ZM3.79585 1.17102C3.46919 2.00836 3.46119 2.92102 3.66985 3.76036L4.64052 3.51902C4.47252 2.84369 4.48852 2.14702 4.72719 1.53436L3.79652 1.17102H3.79585ZM14.3765 4.01036C14.34 3.9578 14.304 3.90491 14.2685 3.85169C14.2499 3.82169 14.2699 3.84502 14.2799 3.89836L13.2965 4.08236C13.3199 4.20702 13.3739 4.30569 13.4145 4.37169C13.4545 4.43769 13.5079 4.51236 13.5592 4.58569L14.3765 4.01036ZM13.3592 3.51902C13.3379 3.60569 13.3152 3.69436 13.3019 3.77036C13.2885 3.84636 13.2732 3.95769 13.2965 4.08236L14.2799 3.89836C14.2899 3.95169 14.2799 3.98102 14.2865 3.94636C14.2885 3.93169 14.2932 3.91036 14.3005 3.87769L14.3299 3.76036L13.3592 3.51902ZM10.4412 2.67236C10.6139 2.71569 10.7652 2.75369 10.8905 2.77636C11.0145 2.79902 11.1592 2.81702 11.3105 2.79302L11.1539 1.80569C11.1712 1.80302 11.1605 1.80902 11.0719 1.79302C10.9413 1.76629 10.8115 1.73606 10.6825 1.70236L10.4412 2.67236ZM11.5572 1.56969C11.3992 1.66769 11.3012 1.72902 11.2252 1.76969C11.1499 1.81036 11.1372 1.80836 11.1539 1.80569L11.3105 2.79302C11.448 2.76784 11.5801 2.71937 11.7012 2.64969C11.8112 2.58969 11.9405 2.50902 12.0865 2.41769L11.5572 1.56969ZM4.43985 4.58569C4.49185 4.51236 4.54452 4.43769 4.58452 4.37236C4.62452 4.30569 4.67919 4.20702 4.70252 4.08236L3.71985 3.89836C3.72985 3.84502 3.74985 3.82169 3.73119 3.85169C3.69569 3.9047 3.65969 3.95737 3.62319 4.00969L4.44052 4.58569H4.43985ZM3.66985 3.76036C3.68511 3.82222 3.69978 3.88422 3.71385 3.94636C3.71985 3.98102 3.70985 3.95169 3.72052 3.89836L4.70319 4.08236C4.72046 3.9789 4.71866 3.87316 4.69785 3.77036C4.68452 3.69436 4.66185 3.60569 4.64052 3.51902L3.66985 3.76036ZM7.31719 1.70236C7.13252 1.74836 7.01585 1.77702 6.92785 1.79302C6.83985 1.80902 6.82785 1.80302 6.84585 1.80569L6.68919 2.79302C6.84052 2.81702 6.98519 2.79969 7.10919 2.77636C7.23452 2.75369 7.38585 2.71569 7.55852 2.67236L7.31719 1.70236ZM5.91319 2.41769C6.05985 2.50902 6.18919 2.59036 6.29852 2.64969C6.40852 2.70902 6.53852 2.76969 6.68919 2.79302L6.84585 1.80569C6.86252 1.80836 6.84985 1.81036 6.77452 1.76969C6.66204 1.70609 6.55133 1.63939 6.44252 1.56969L5.91319 2.41769Z" fill="#77869E"/>
</g>
<defs>
<clipPath id="clip0_181256_34061">
<rect width="16" height="16" fill="white"/>
</clipPath>
</defs>
</svg>
