<?xml version="1.0" standalone="no"?><!DOCTYPE svg PUBLIC "-//W3C//DTD SVG 1.1//EN" "http://www.w3.org/Graphics/SVG/1.1/DTD/svg11.dtd"><svg t="1753435007855" class="icon" viewBox="0 0 1024 1024" version="1.1" xmlns="http://www.w3.org/2000/svg" p-id="4411" xmlns:xlink="http://www.w3.org/1999/xlink" width="200" height="200"><path d="M677.712 104h165.712c77.648 0 140.576 63.456 140.576 141.728v484.768c0 78.256-62.928 141.728-140.576 141.728H680.432c-45.28 0-90.32 9.936-129.6 27.872L512 939.36l-2.848-2.88-2.864-2.88-30.832-31.904a309.856 309.856 0 0 0-131.888-29.488H180.576c-77.648 0-140.576-63.472-140.576-141.728V245.728c0-78.272 62.928-141.728 140.576-141.728h165.712c65.648 0 126.736 31.168 165.712 83.728A205.984 205.984 0 0 1 677.712 104z m2.848 679.456h164.528c32.544 0 58.912-26.208 58.912-58.544V242.528c0-32.32-26.368-58.528-58.912-58.528H677.824c-69.504 0-125.824 56-125.824 125.072v495.6a400.048 400.048 0 0 1 128.56-21.216zM472 309.056c0-69.056-56.32-125.056-125.824-125.056H178.912c-32.544 0-58.912 26.208-58.912 58.528v482.4c0 32.32 26.368 58.528 58.912 58.528h164.528c43.776 0 87.2 7.168 128.56 21.216V309.072z" fill="#92A0B7" p-id="4412"></path></svg>