<svg width="16" height="16" viewBox="0 0 16 16" fill="none" xmlns="http://www.w3.org/2000/svg">
<g id="Frame">
<path id="Vector" d="M14.2154 8.08437L11.6618 5.77637C11.564 5.68716 11.4365 5.6377 11.3042 5.6377C11.1718 5.6377 11.0443 5.68716 10.9466 5.77637C10.8987 5.81554 10.8601 5.86485 10.8336 5.92075C10.8072 5.97664 10.7934 6.03772 10.7934 6.09957C10.7934 6.16142 10.8072 6.2225 10.8336 6.2784C10.8601 6.33429 10.8987 6.38361 10.9466 6.42277L12.6322 7.94597H7.72817C7.42257 7.94597 7.21777 8.13077 7.21777 8.40757C7.21777 8.68517 7.42257 8.86917 7.72897 8.86917H12.6322L10.9466 10.3932C10.8987 10.4323 10.8601 10.4817 10.8336 10.5375C10.8072 10.5934 10.7934 10.6545 10.7934 10.7164C10.7934 10.7782 10.8072 10.8393 10.8336 10.8952C10.8601 10.9511 10.8987 11.0004 10.9466 11.0396C10.9937 11.0856 11.0497 11.1216 11.1112 11.1454C11.1727 11.1692 11.2383 11.1803 11.3042 11.178C11.37 11.1802 11.4357 11.1692 11.4971 11.1454C11.5586 11.1216 11.6146 11.0856 11.6618 11.0396L14.2154 8.68517C14.2154 8.68517 14.2154 8.63877 14.2666 8.63877C14.3052 8.60172 14.3349 8.55645 14.3536 8.50633C14.3723 8.4562 14.3794 8.40251 14.3745 8.34924C14.3696 8.29597 14.3527 8.2445 14.3252 8.19864C14.2976 8.15279 14.2601 8.11373 14.2154 8.08437Z" fill="#77869E"/>
<path id="Vector_2" d="M1.6001 12.925C1.6001 13.761 2.2761 14.4002 3.1601 14.4002H12.0041C12.8881 14.4002 13.5641 13.761 13.5641 12.925V11.941C13.5641 11.6466 13.3561 11.4498 13.0441 11.4498C12.7321 11.4498 12.5241 11.6466 12.5241 11.9418V12.9258C12.5241 13.2202 12.3161 13.417 12.0041 13.417H3.1601C2.8481 13.417 2.6401 13.2202 2.6401 12.925V3.09141C2.6401 2.79621 2.8481 2.59941 3.1601 2.59941H12.0033C12.3153 2.59941 12.5233 2.79621 12.5233 3.09141V4.07461C12.5233 4.36981 12.7313 4.56661 13.0433 4.56661C13.3553 4.56661 13.5633 4.36981 13.5633 4.07461V3.09061C13.5641 2.25621 12.8881 1.61621 12.0041 1.61621H3.1601C2.2761 1.61621 1.6001 2.25541 1.6001 3.09141" fill="#77869E"/>
</g>
</svg>
