<svg width="16" height="16" viewBox="0 0 16 16" fill="none" xmlns="http://www.w3.org/2000/svg">
<g id="Frame" clip-path="url(#clip0_181256_34030)">
<path id="Vector" d="M9.47483 9.47365C9.15316 9.79532 8.72483 9.97365 8.26983 9.97365C7.81483 9.97365 7.3865 9.79698 7.06483 9.47365C6.74316 9.15198 6.56483 8.72365 6.56483 8.26865C6.56483 7.81365 6.7415 7.38532 7.06483 7.06365C7.3865 6.74198 7.81483 6.56365 8.26983 6.56365C8.72483 6.56365 9.15316 6.74032 9.47483 7.06365C9.79651 7.38698 9.97483 7.81365 9.97483 8.26865C9.97483 8.72365 9.79651 9.15199 9.47483 9.47365ZM8.26983 5.36365C6.66816 5.36365 5.36483 6.66698 5.36483 8.26865C5.36483 9.87032 6.66816 11.1736 8.26983 11.1736C9.87151 11.1736 11.1748 9.87032 11.1748 8.26865C11.1748 6.66698 9.87151 5.36365 8.26983 5.36365ZM14.6715 8.25532V8.26365C14.6715 8.48865 14.6565 8.71698 14.6282 8.96198L14.0382 9.15865L13.5165 9.33532L13.3548 9.86032C13.2629 10.1641 13.1418 10.4582 12.9932 10.7386L12.7365 11.2236L13.2598 12.2686C13.1065 12.462 12.9548 12.6336 12.7965 12.792L12.7932 12.7953C12.6382 12.952 12.4665 13.1036 12.2732 13.2553L11.2315 12.7336L10.7482 12.9853C10.4632 13.1336 10.1632 13.257 9.85816 13.3536L9.33649 13.517L9.16649 14.0336L8.96982 14.6236C8.72649 14.6536 8.49649 14.667 8.27149 14.667C8.04816 14.667 7.81816 14.652 7.57316 14.6236L7.37649 14.0336L7.20482 13.512L6.67982 13.3503C6.36982 13.2553 6.07482 13.1336 5.80149 12.9886L5.31483 12.7353L4.82316 12.9803L4.26816 13.257C4.07483 13.1037 3.90316 12.952 3.74483 12.7937C3.58316 12.632 3.4315 12.4603 3.2815 12.2703L3.8015 11.2287L3.54818 10.7453C3.3965 10.4553 3.27318 10.1587 3.18318 9.86201L3.0215 9.33701L1.9115 8.96868C1.8815 8.72535 1.86818 8.49535 1.86818 8.27035C1.86818 8.04535 1.88318 7.81702 1.9115 7.57202L3.01818 7.2037L3.17985 6.68037C3.27318 6.3787 3.39652 6.08037 3.54485 5.7937L3.79818 5.31037L3.55485 4.82204L3.27818 4.26704C3.57026 3.90329 3.9011 3.57245 4.26485 3.28037L5.30818 3.80204L5.79318 3.54704C6.07318 3.40037 6.3715 3.27704 6.67985 3.18037L7.20152 3.01704L7.37483 2.49865L7.5715 1.90865C7.82318 1.88032 8.05151 1.86532 8.26818 1.86532C8.49151 1.86532 8.7215 1.88032 8.96485 1.90865L9.33485 3.01365L9.85652 3.17532C10.1598 3.27032 10.4582 3.39365 10.7432 3.54032L11.2265 3.79365L12.2682 3.27198C12.6332 3.56499 12.9656 3.89633 13.2599 4.2603L12.7399 5.30198L12.9899 5.78365C13.1382 6.07032 13.2632 6.37032 13.3582 6.67532L13.5215 7.19699L14.0398 7.37032L14.6298 7.56699C14.6615 7.81699 14.6748 8.04199 14.6715 8.25532ZM15.7632 7.06199L15.6998 6.66199L14.4782 6.25366C14.3715 5.92366 14.2382 5.60034 14.0798 5.29199L14.6565 4.14032L14.4198 3.81032C13.9398 3.15532 13.3665 2.58199 12.7148 2.10865L12.3865 1.87198L11.2348 2.44865C10.9254 2.2905 10.6038 2.1573 10.2732 2.05032L9.86649 0.831992L9.46983 0.77032C9.02816 0.70032 8.64651 0.666992 8.26651 0.666992C7.89651 0.666992 7.51318 0.70032 7.0615 0.771992L6.6615 0.83532L6.25483 2.05865C5.91816 2.16865 5.59483 2.30198 5.29316 2.45532L4.14316 1.87699L3.81483 2.11366C3.1615 2.58699 2.58816 3.15866 2.1115 3.81534L1.87483 4.14532L2.4515 5.29699C2.29483 5.60532 2.1615 5.92699 2.05483 6.25699L0.83316 6.66199L0.769832 7.06199C0.699832 7.50366 0.666504 7.89699 0.666504 8.26866C0.666504 8.64199 0.699832 9.03534 0.769832 9.47366L0.83316 9.87366L2.05483 10.282C2.1615 10.612 2.29483 10.9353 2.45316 11.2437L1.87983 12.392L2.1165 12.7187C2.36318 13.062 2.61818 13.3637 2.89483 13.642C3.15316 13.902 3.45483 14.157 3.8165 14.422L4.14483 14.6587L5.29483 14.082C5.60483 14.2403 5.9265 14.3753 6.2565 14.4803L6.66318 15.7036L7.06318 15.767C7.5015 15.837 7.89485 15.8703 8.26651 15.8703C8.63818 15.8703 9.03151 15.837 9.47151 15.767L9.8715 15.7036L10.2782 14.4803C10.6048 14.3736 10.9265 14.2403 11.2382 14.0836L12.3898 14.6603L12.7182 14.4236C13.0765 14.1653 13.3782 13.9103 13.6398 13.6436C13.9115 13.372 14.1648 13.0686 14.4182 12.7203L14.6548 12.3903L14.0782 11.2386C14.2369 10.9295 14.3701 10.6078 14.4765 10.277L15.6982 9.86865L15.7615 9.46865C15.8315 9.03032 15.8648 8.63698 15.8648 8.26532C15.8698 7.89699 15.8365 7.50199 15.7632 7.06199Z" fill="#77869E"/>
</g>
<defs>
<clipPath id="clip0_181256_34030">
<rect width="16" height="16" fill="white"/>
</clipPath>
</defs>
</svg>
