<svg width="16" height="16" viewBox="0 0 16 16" fill="none" xmlns="http://www.w3.org/2000/svg">
<g id="Frame">
<path id="Vector" d="M13.0499 11.9607C11.9718 10.8467 10.6155 10.1092 9.13115 9.81387C9.90615 9.31855 10.4233 8.45293 10.4233 7.46699C10.4233 5.93262 9.1749 4.68262 7.63896 4.68262C6.10303 4.68262 4.85459 5.93105 4.85459 7.46699C4.85459 8.45293 5.37178 9.31855 6.14678 9.81387C4.66396 10.1092 3.30771 10.8467 2.22959 11.9607C1.95146 12.2482 1.95146 12.7154 2.22959 13.0029C3.6624 14.4826 5.58271 15.2967 7.64053 15.2967C9.69834 15.2967 11.6187 14.4826 13.0499 13.0029C13.328 12.7154 13.328 12.2482 13.0499 11.9607ZM5.93115 7.46699C5.93115 6.5248 6.69834 5.75762 7.64053 5.75762C8.58271 5.75762 9.3499 6.5248 9.3499 7.46699C9.3499 8.40918 8.58271 9.17637 7.64053 9.17637C6.69834 9.17637 5.93115 8.41074 5.93115 7.46699ZM7.64053 14.2217C5.98428 14.2217 4.43115 13.6061 3.23271 12.4811C4.43115 11.3561 5.98428 10.7404 7.64053 10.7404C9.29678 10.7404 10.8483 11.3561 12.0483 12.4811C10.8499 13.6061 9.29678 14.2217 7.64053 14.2217Z" fill="#77869E"/>
<path id="Vector_2" d="M14.4204 8.62187C14.1423 8.62187 13.9095 8.40781 13.8876 8.13125C13.636 4.90469 10.9313 2.35625 7.64071 2.35625C4.35008 2.35625 1.6454 4.90469 1.39383 8.13125C1.37196 8.40937 1.13915 8.62187 0.861022 8.62187C0.545397 8.62187 0.298522 8.35156 0.323522 8.0375C0.621959 4.2625 3.78915 1.28125 7.64071 1.28125C11.4923 1.28125 14.6595 4.2625 14.9579 8.0375C14.9829 8.35156 14.736 8.62187 14.4204 8.62187Z" fill="#77869E"/>
</g>
</svg>
