<?xml version="1.0" standalone="no"?><!DOCTYPE svg PUBLIC "-//W3C//DTD SVG 1.1//EN" "http://www.w3.org/Graphics/SVG/1.1/DTD/svg11.dtd"><svg t="1744620849812" class="icon" viewBox="0 0 1024 1024" version="1.1" xmlns="http://www.w3.org/2000/svg" p-id="45214" xmlns:xlink="http://www.w3.org/1999/xlink" width="150" height="150"><path d="M467.968 677.21898667H212.71438222l-44.25955555 128.68266666a43.31747555 43.31747555 0 0 1-40.96 29.22723556H77.48266667a43.31747555 43.31747555 0 0 1-40.65052445-58.27242667L239.38844445 226.32675555A43.31747555 43.31747555 0 0 1 280.04352 197.97333333h124.13155555a43.31747555 43.31747555 0 0 1 40.69148445 28.46264889l200.99527111 550.52060445A43.31747555 43.31747555 0 0 1 605.17489778 835.12888889h-52.72917333a43.31747555 43.31747555 0 0 1-41.03281778-29.44113778L467.968 677.21898667zM428.14122667 561.53884445l-79.73091556-236.31644445a7.56394667 7.56394667 0 0 0-7.16344889-5.14730667c-3.25404445 0-6.144 2.06165333-7.20440889 5.13365334L252.54115555 561.53884445h175.60007112zM622.65571555 188.87111111H695.63733333c17.44896 0 33.19125333 10.46755555 39.94510222 26.56028444l78.62499556 187.41475556a43.31747555 43.31747555 0 0 1-39.94510222 60.07466667H701.28071111a43.31747555 43.31747555 0 0 1-39.94055111-26.56028445L582.71516445 248.94577778a43.31747555 43.31747555 0 0 1 39.9405511-60.07466667zM721.35111111 625.77777778h218.45333334q50.06222222 0 50.06222222 50.06222222t-50.06222222 50.06222222H721.35111111q-50.06222222 0-50.06222222-50.06222222t50.06222222-50.06222222z" p-id="45215" fill="currentColor"></path><path d="M880.64 566.61333333v218.45333334c0 27.648-22.41422222 50.06222222-50.06222222 50.06222222s-50.06222222-22.41422222-50.06222223-50.06222222V566.61333333c0-27.648 22.41422222-50.06222222 50.06222223-50.06222222s50.06222222 22.41422222 50.06222222 50.06222222z" p-id="45216" fill="currentColor"></path></svg>