<?xml version="1.0" standalone="no"?><!DOCTYPE svg PUBLIC "-//W3C//DTD SVG 1.1//EN" "http://www.w3.org/Graphics/SVG/1.1/DTD/svg11.dtd"><svg t="1744698214701" class="icon" viewBox="0 0 1024 1024" version="1.1" xmlns="http://www.w3.org/2000/svg" p-id="6844" xmlns:xlink="http://www.w3.org/1999/xlink" width="256" height="256"><path d="M273.786105 518.794692V512.399688h-63.950039v22.382513l3.197502 6.395004c44.765027 86.332553 79.937549 271.787666 79.937548 428.465262V1024h428.465262l-22.382514-172.665105c0-3.197502 3.197502-3.197502 3.197502-3.197502h105.517565c41.567525 0 76.740047-35.172521 76.740046-76.740047V736.224824l9.592506-19.185011c3.197502-6.395004 3.197502-12.790008 0-22.382514l22.382514-25.580016-6.395004-9.592505c31.97502-3.197502 54.357533-31.97502 47.962529-63.95004 0-6.395004-3.197502-12.790008-6.395004-15.987509-22.382514-44.765027-38.370023-89.530055-54.357533-137.492584-3.197502-6.395004-3.197502-12.790008-3.197502-19.185012v-92.727556c0-28.777518-3.197502-57.555035-12.790008-83.135051C878.113973 202.241998 855.73146 160.674473 823.75644 125.501952l-19.185011-19.185012-12.790008-12.790008C731.028884 39.169399 651.091335 3.996877 567.956284 0.799375v63.95004c67.147541 3.197502 131.09758 31.97502 179.060109 76.740046 3.197502 3.197502 6.395004 6.395004 12.790008 9.592506l15.98751 15.98751c25.580016 25.580016 41.567525 60.752537 51.160031 95.925059 6.395004 22.382514 9.592506 44.765027 9.592506 67.147541v92.727556c0 12.790008 3.197502 25.580016 6.395004 38.370024 15.98751 44.765027 31.97502 89.530055 54.357533 134.295081h-15.98751l-6.395003 3.197502c-19.185012 6.395004-35.172521 25.580016-35.172522 47.96253v6.395004l3.197502 3.197502-9.592506 9.592505v31.97502c-6.395004 9.592506-9.592506 19.185012-9.592506 28.777518v38.370023c0 6.395004-6.395004 12.790008-12.790008 12.790008h-105.517564c-38.370023 0-67.147541 31.97502-67.147541 67.147541l12.790008 108.715066H356.921155c-3.197502-156.677596-35.172521-338.935207-83.13505-434.860265z" fill="currentColor" p-id="6845"></path><path d="M395.291179 512.399688H567.956284v-172.665106L264.193599 35.971897C216.231069-11.990632 139.491023-11.990632 91.528493 35.971897 69.14598 58.354411 56.355972 90.32943 56.355972 122.30445c0 31.97502 12.790008 63.950039 35.172521 86.332552l303.762686 303.762686z m108.715066-63.950039h-83.135051l-223.825136-223.825137L280.181109 141.489461l223.825136 223.825137V448.449649zM136.293521 80.736924c22.382514-22.382514 60.752537-22.382514 83.13505 0l15.98751 15.98751L152.28103 179.859485l-15.987509-15.98751c-22.382514-22.382514-22.382514-57.555035 0-83.135051z" fill="currentColor" p-id="6846"></path></svg>