<?xml version="1.0" standalone="no"?><!DOCTYPE svg PUBLIC "-//W3C//DTD SVG 1.1//EN" "http://www.w3.org/Graphics/SVG/1.1/DTD/svg11.dtd"><svg t="1744618913076" class="icon" viewBox="0 0 1060 1024" version="1.1" xmlns="http://www.w3.org/2000/svg" p-id="35143" xmlns:xlink="http://www.w3.org/1999/xlink" width="207.03125" height="200"><path d="M959.616 1018.944q31.744 0 54.784-23.04t23.04-54.784-23.04-54.784-54.784-23.04-54.784 23.04-23.04 54.784 23.04 54.784 54.784 23.04m-197.664-155.68H400.416v-115.712h361.536q34.816 0 65.536-15.872t50.688-43.52 23.04-61.44l38.912-268.32v-7.168q0-26.624-17.408-48.64t-40.96-22.016H244.736l38.912 361.536-116.768 11.264L116.704 164.864h765.024q48.128 0 89.088 25.088t65.536 68.096 24.576 93.184v22.528l-43.008 268.32q-9.216 61.44-46.592 112.128t-93.184 79.872-116.256 29.184M241.696 1018.944q-83.968 0-151.584-62.464-29.696-28.672-46.08-68.096t-16.384-83.456q0-82.944 62.464-151.584 28.672-28.672 68.096-45.056t82.944-16.384 82.944 16.384 68.608 45.568 45.568 68.608 16.384 82.944-16.384 82.944-46.08 68.096q-67.584 62.464-150.56 62.464m0.064-310.272q-36.864 0-70.656 26.624-26.624 33.792-26.624 69.632t26.624 70.656q17.408 16.384 43.008 22.528t50.688 0 42.496-22.528q30.72-31.744 30.72-70.656 0-35.84-26.624-69.632-33.792-26.624-69.632-26.624m-51.2-372.8q-21.504 0-38.4-14.336t-19.968-36.864l-19.456-116.768q-3.072-20.48-17.408-33.28t-36.864-12.8-40.448-17.408-17.92-40.96 17.92-40.96T58.4 5.056q44.032 0 80.896 19.968t60.416 54.784 29.696 76.8l19.456 112.672q3.072 23.552-10.24 43.52t-35.84 23.04h-12.288z" p-id="35144" fill="currentColor"></path></svg>