<?xml version="1.0" standalone="no"?><!DOCTYPE svg PUBLIC "-//W3C//DTD SVG 1.1//EN" "http://www.w3.org/Graphics/SVG/1.1/DTD/svg11.dtd"><svg t="1747626723970" class="icon" viewBox="0 0 1024 1024" version="1.1" xmlns="http://www.w3.org/2000/svg" p-id="5668" xmlns:xlink="http://www.w3.org/1999/xlink" width="256" height="256"><path d="M564.394667 78.677333L857.884444 248.035556A104.846222 104.846222 0 0 1 910.222222 338.830222v338.773334c0 37.489778-20.024889 72.078222-52.394666 90.851555L564.337778 937.756444a104.846222 104.846222 0 0 1-104.789334 0L166.115556 768.455111A104.903111 104.903111 0 0 1 113.777778 677.660444V338.887111c0-37.432889 20.024889-72.078222 52.394666-90.794667L459.662222 78.734222a104.903111 104.903111 0 0 1 104.789334 0v-0.056889zM494.592 139.264L232.675556 290.304l108.657777 61.212444-39.708444 70.542223-118.044445-66.389334v321.934223c0 12.515556 6.712889 24.007111 17.521778 30.264888l272.213334 157.127112v-164.408889h81.009777l-0.056889 162.304 268.515556-155.022223a34.929778 34.929778 0 0 0 17.464889-30.264888V357.774222l-114.289778 64.284445-39.708444-70.542223 106.723555-60.131555-263.566222-152.120889a34.929778 34.929778 0 0 0-34.929778 0z m79.644444 298.666667v49.777777h-24.917333a49.777778 49.777778 0 0 0 0 99.555556h24.917333v49.777778h-24.917333a99.555556 99.555556 0 0 1 0-199.111111h24.917333z m149.333334 0a74.638222 74.638222 0 0 1 0 149.333333h-49.777778v49.777778h-49.777778V475.306667a37.319111 37.319111 0 0 1 37.319111-37.376h62.236445z m-298.666667 24.917333v174.250667h-49.777778V552.561778l-28.444444 47.445333a24.917333 24.917333 0 0 1-39.992889 3.697778l-2.730667-3.697778-28.444444-47.388444v84.366222H225.848889V462.848c0-25.258667 33.223111-34.474667 46.250667-12.8l53.304888 88.860444 53.304889-88.860444c12.970667-21.617778 46.250667-12.458667 46.250667 12.8z m298.666667 24.860444h-49.777778v49.777778h49.777778a24.860444 24.860444 0 1 0 0-49.777778z" fill="#d81e06" p-id="5669"></path></svg>