<?xml version="1.0" standalone="no"?><!DOCTYPE svg PUBLIC "-//W3C//DTD SVG 1.1//EN" "http://www.w3.org/Graphics/SVG/1.1/DTD/svg11.dtd"><svg t="1749723754974" class="icon" viewBox="0 0 1024 1024" version="1.1" xmlns="http://www.w3.org/2000/svg" p-id="6970" width="256" height="256" xmlns:xlink="http://www.w3.org/1999/xlink"><path d="M911.123846 211.69388L572.469388 16.183589a121.194498 121.194498 0 0 0-121.009339 0L112.839256 211.76121A121.194498 121.194498 0 0 0 52.343003 316.493455v390.986915a121.043005 121.043005 0 0 0 60.496253 104.917404L451.476881 1007.807069a121.194498 121.194498 0 0 0 121.00934 0l338.637625-195.459793a121.194498 121.194498 0 0 0 60.496254-104.866906V316.493455a121.043005 121.043005 0 0 0-60.496254-104.799575z m-40.398166 530.663574L560.82125 921.338161V746.026954A12.052119 12.052119 0 0 0 548.903792 733.941169h-69.451181a12.052119 12.052119 0 0 0-12.052119 12.05212V923.812549L153.237422 742.357454a40.246673 40.246673 0 0 1-20.199083-34.927581V335.91824l125.722459 70.69679a12.068952 12.068952 0 0 0 16.411755-4.595291l34.035454-60.479421a12.052119 12.052119 0 0 0-4.595291-16.411755l-114.949615-64.637065L491.875047 86.156579a40.398166 40.398166 0 0 1 40.398166 0l304.097194 175.597361-112.677218 63.425121a12.068952 12.068952 0 0 0-4.595291 16.411755l34.035455 60.462588a12.035287 12.035287 0 0 0 16.411754 4.595291l121.362824-68.2729v369.138241a40.398166 40.398166 0 0 1-20.182251 34.843418z" p-id="6971" fill="#909399"></path><path d="M411.4322 660.719493H353.982641v-97.443742l-32.806677 54.756347a28.716363 28.716363 0 0 1-46.18857 4.241808l-3.114025-4.241808-32.806677-54.70585v97.393245H181.617133V459.570292c0-29.120345 38.378258-39.758528 53.376077-14.762163l61.539873 102.560844 61.52304-102.560844c14.997819-24.996365 53.376077-14.358181 53.376077 14.762163zM583.797707 488.353986h-28.716363a57.466391 57.466391 0 0 0 0 114.915949h28.716363v57.449558h-28.716363a114.915949 114.915949 0 0 1 0-229.831898h28.716363zM756.163215 430.954925h-71.824572a43.091377 43.091377 0 0 0-43.074545 43.108209V660.719493H698.713657v-57.449558h57.449558a86.199586 86.199586 0 0 0 0-172.38234z m0 114.915949H698.713657V488.353986h57.449558a28.733195 28.733195 0 1 1 0 57.449558z" p-id="6972" fill="#909399"></path></svg>