<?xml version="1.0" standalone="no"?><!DOCTYPE svg PUBLIC "-//W3C//DTD SVG 1.1//EN" "http://www.w3.org/Graphics/SVG/1.1/DTD/svg11.dtd"><svg t="1744618827704" class="icon" viewBox="0 0 1024 1024" version="1.1" xmlns="http://www.w3.org/2000/svg" p-id="28885" xmlns:xlink="http://www.w3.org/1999/xlink" width="200" height="200"><path d="M232.32 398.72L512 256l279.68 143.36L512 539.52z m560 64v215.04l-248.96 136.96v-224z m-560 0v215.04l248.96 136.96v-224z" fill="currentColor" p-id="28886"></path><path d="M960 704V284.16L595.84 87.68a86.4 86.4 0 0 0-167.68 0L64 284.16V704a87.04 87.04 0 1 0 113.92 128L512 1011.2l334.08-179.2a84.48 84.48 0 0 0 67.84 33.28A86.4 86.4 0 0 0 960 704zM195.2 768a86.4 86.4 0 0 0-64-74.88V320l309.12-166.4A86.4 86.4 0 0 0 512 197.76a87.68 87.68 0 0 0 74.88-42.24L896 320v371.2a85.76 85.76 0 0 0-67.84 76.8L512 938.88z" fill="currentColor" p-id="28887"></path></svg>