<?xml version="1.0" standalone="no"?><!DOCTYPE svg PUBLIC "-//W3C//DTD SVG 1.1//EN" "http://www.w3.org/Graphics/SVG/1.1/DTD/svg11.dtd"><svg t="1744618902763" class="icon" viewBox="0 0 1024 1024" version="1.1" xmlns="http://www.w3.org/2000/svg" p-id="34015" xmlns:xlink="http://www.w3.org/1999/xlink" width="200" height="200"><path d="M791.2448 112.0256H232.7552c-66.7136 0-120.7808 53.0432-120.7808 118.4768v562.9952c0 65.4336 54.0672 118.528 120.7808 118.528h558.4896c66.7136 0 120.7296-53.0944 120.7296-118.528V230.5024c0-65.4336-54.016-118.4768-120.7296-118.4768zM172.3904 230.5024c0-32.7168 27.0336-59.2384 60.3648-59.2384h558.4896c33.3312 0 60.416 26.5216 60.416 59.2384v562.9952c0 32.7168-27.0848 59.2384-60.416 59.2384H232.7552c-33.3312 0-60.416-26.5216-60.416-59.2384V230.5024z m87.8592 185.4976h99.1232V345.1392h-47.4112a49.8176 49.8176 0 0 1 11.1616-28.7744c6.656-8.192 14.848-12.4928 30.464-16.9984l-21.4016-40.5504c-28.4672 12.4416-42.752 19.2512-54.3744 35.5328-11.776 16.2304-17.5616 38.4-17.5616 66.5088v55.1424z m121.088 0h99.1232V345.1392h-47.4112a49.8176 49.8176 0 0 1 11.2128-28.7744c6.656-8.192 17.408-12.4928 30.4128-16.9984l-21.4016-40.5504c-28.416 12.4416-42.7008 19.2512-54.3744 35.5328-11.7248 16.2304-17.5616 38.4-17.5616 66.5088v55.1424z m258.6624 186.2144h-99.1232v78.8992h47.4112a50.3296 50.3296 0 0 1-11.0592 28.8256c-6.656 8.192-18.7904 12.3392-36.4032 20.5312l21.6064 40.5504c28.2624-12.288 48.2816-26.624 59.904-42.9056 11.776-16.3328 17.664-34.56 17.664-62.72v-63.1808z m119.9616 0h-99.1744v78.8992h47.4624a50.3808 50.3808 0 0 1-11.0592 28.8256c-6.656 8.192-18.7904 12.3392-36.4544 20.5312l21.6576 40.5504c28.2624-12.288 48.3328-22.6304 60.0064-38.912 11.7248-16.384 17.5616-38.5536 17.5616-66.7136v-63.1808z" p-id="34016" fill="currentColor"></path></svg>