<?xml version="1.0" standalone="no"?><!DOCTYPE svg PUBLIC "-//W3C//DTD SVG 1.1//EN" "http://www.w3.org/Graphics/SVG/1.1/DTD/svg11.dtd"><svg t="1744619483330" class="icon" viewBox="0 0 1024 1024" version="1.1" xmlns="http://www.w3.org/2000/svg" p-id="37908" xmlns:xlink="http://www.w3.org/1999/xlink" width="200" height="200"><path d="M884.992 38.4c68.608 0 124.3136 52.992 124.3136 118.4256v552.4992c0 65.4336-55.6544 118.4256-124.3136 118.4256h-236.1344L410.624 978.9952a43.2128 43.2128 0 0 1-39.424 3.3792 39.8336 39.8336 0 0 1-24.3712-29.696l-0.6144-6.5024v-118.4256H139.008c-64 0-117.5552-46.336-123.6992-107.008l-0.6144-11.4176V156.8256C14.6944 91.392 70.3488 38.4 139.008 38.4h745.984zM437.0944 244.736c-31.5392 0-48.4352 14.6432-60.3136 49.7664L281.6 567.296c-4.7104 14.08-6.656 22.6816-6.656 30.1568 0 18.7904 14.1312 31.232 34.6112 31.232 19.9168 0 30.976-10.24 38.7072-36.1984l21.0432-64.2048h132.5056l21.2992 64.2048c7.4752 25.7024 19.0976 36.1984 39.3216 36.1984 21.2992 0 35.3792-12.6976 35.3792-32.6144 0-7.7824-1.9456-16.896-5.7856-28.7744L496.8448 294.5024c-11.8784-35.4304-28.5184-49.8176-59.7504-49.8176z m251.1872 0.256c-23.7568 0-37.376 14.9504-37.376 40.3968v302.3872c0 25.4464 13.8752 40.3968 37.6832 40.3968 23.5008 0 37.0688-14.9504 37.0688-40.448V285.44c0-25.4464-13.824-40.448-37.376-40.448zM437.6576 319.9488l47.872 152.7296H385.8944l48.128-152.7296h3.584z" p-id="37909" fill="currentColor"></path></svg>