<?xml version="1.0" standalone="no"?><!DOCTYPE svg PUBLIC "-//W3C//DTD SVG 1.1//EN" "http://www.w3.org/Graphics/SVG/1.1/DTD/svg11.dtd"><svg t="1744698154535" class="icon" viewBox="0 0 1024 1024" version="1.1" xmlns="http://www.w3.org/2000/svg" p-id="5544" xmlns:xlink="http://www.w3.org/1999/xlink" width="256" height="256"><path d="M87.133091 928.581818c-57.623273-57.530182-65.163636-155.927273-17.687273-279.272727 18.338909-46.824727 41.332364-91.787636 68.328727-134.237091L139.636364 512l-1.861819-3.072a793.6 793.6 0 0 1-68.421818-134.050909C21.969455 251.345455 29.509818 152.948364 87.133091 95.325091 118.877091 63.581091 164.491636 46.545455 219.694545 46.545455c80.802909 0 179.665455 36.026182 281.134546 99.607272l3.072 1.861818 2.978909-1.861818C608.256 82.664727 707.118545 46.545455 787.921455 46.545455c55.202909 0 100.817455 17.035636 132.468363 48.779636 57.530182 57.623273 65.163636 156.113455 17.687273 279.458909a788.014545 788.014545 0 0 1-68.328727 134.050909l-1.954909 3.165091 1.861818 2.978909c28.392727 45.335273 51.665455 90.577455 68.421818 134.144 47.476364 123.345455 39.936 221.835636-17.687273 279.458909-31.650909 31.744-77.265455 48.779636-132.375273 48.779637-80.896 0-179.665455-36.119273-281.134545-99.607273l-3.165091-1.861818-2.978909 1.861818c-101.469091 63.581091-200.331636 99.700364-281.134545 99.700363-55.202909 0-100.817455-17.035636-132.468364-48.779636z m773.213091-249.483636a662.248727 662.248727 0 0 0-40.215273-84.712727l-4.282182-7.447273-5.213091 6.795636c-65.163636 84.340364-140.846545 159.930182-225.093818 225.093818l-6.795636 5.306182 7.447273 4.189091c74.193455 41.611636 145.221818 65.908364 201.728 65.908364 31.930182 0 57.064727-7.819636 73.541818-24.389818 17.128727-17.035636 24.855273-43.938909 24.389818-76.334546-0.465455-32.581818-9.029818-71.68-25.506909-114.501818zM500.456727 772.654545l3.258182 2.420364 3.351273-2.420364A1127.703273 1127.703273 0 0 0 765.207273 515.351273l2.420363-3.351273-2.420363-3.258182A1119.325091 1119.325091 0 0 0 507.066182 251.345455l-3.351273-2.327273-3.258182 2.420363a1127.889455 1127.889455 0 0 0-258.234182 257.303273l-2.420363 3.258182 2.420363 3.351273a1119.790545 1119.790545 0 0 0 258.234182 257.396363z m361.099637-618.402909c-16.663273-16.570182-41.797818-24.389818-73.634909-24.389818-56.599273 0-127.534545 24.203636-201.728 65.908364l-7.447273 4.189091 6.795636 5.213091c84.340364 65.163636 160.023273 140.753455 225.093818 225.093818l5.213091 6.795636 4.189091-7.447273c16.011636-28.578909 29.789091-56.971636 40.308364-84.712727 16.477091-42.635636 25.134545-81.733818 25.506909-114.315636 0.465455-32.488727-7.261091-59.298909-24.296727-76.334546zM147.083636 344.994909c11.450182 29.137455 24.948364 57.437091 40.308364 84.712727l4.282182 7.354182 5.213091-6.795636a1244.625455 1244.625455 0 0 1 225.000727-225.093818l6.888727-5.213091-7.447272-4.189091c-74.286545-41.704727-145.221818-65.908364-201.821091-65.908364-31.930182 0-57.064727 7.819636-73.541819 24.389818-17.035636 17.035636-24.762182 43.845818-24.296727 76.334546 0.372364 32.581818 9.029818 71.68 25.413818 114.408727z m0 334.103273c-16.477091 42.728727-25.041455 81.826909-25.413818 114.408727-0.465455 32.395636 7.168 59.298909 24.203637 76.334546 16.663273 16.570182 41.797818 24.389818 73.634909 24.389818 56.599273 0 127.534545-24.203636 201.728-65.908364l7.447272-4.189091-6.795636-5.306182a1244.625455 1244.625455 0 0 1-225.000727-225.093818l-5.306182-6.795636-4.189091 7.447273c-15.453091 27.275636-28.858182 55.575273-40.308364 84.712727z" fill="#909399" p-id="5545"></path><path d="M543.744 608.721455A104.541091 104.541091 0 0 1 399.080727 512 104.634182 104.634182 0 1 1 543.650909 608.814545z" fill="#909399" p-id="5546"></path></svg>